<svg width="400" height="100" viewBox="0 0 400 100" fill="none" xmlns="http://www.w3.org/2000/svg">
<g clip-path="url(#clip0_25035_2464)">
<path fill-rule="evenodd" clip-rule="evenodd" d="M88 0.60449L54.6107 37.0368L36.9937 20.0269H12.4511L42.8655 49.8524L41.9234 50.8804L41.9306 50.8881L12.2826 79.9621H36.8252L53.8591 63.5152L87.83 99.4756C87.0843 99.8124 86.256 100 85.3836 100H5.91876C2.64992 100 0 97.3664 0 94.1177V5.88236C0 2.63362 2.64992 0 5.91876 0H85.3836C86.3229 0 87.2111 0.217461 88 0.60449Z" fill="#26A887"/>
<path d="M104 81V22.237H143.527V34.2718H117.701V45.3106H142.115V56.6814H117.701V68.8822H145.021V81H104Z" fill="#1A202C"/>
<path d="M181.926 81L173.041 68.3012L163.906 81H148.129L164.654 59.3373L149.707 39.6667H165.567L173.29 50.7055L181.096 39.6667H196.458L181.594 59.3373L197.953 81H181.926Z" fill="#1A202C"/>
<path d="M217.778 26.4699C217.778 27.5212 217.557 28.5172 217.114 29.4578C216.726 30.3432 216.173 31.1178 215.453 31.7818C214.789 32.4458 213.958 32.9714 212.962 33.3588C212.021 33.7461 211.024 33.9398 209.973 33.9398C207.758 33.9398 205.904 33.2204 204.409 31.7818C202.914 30.2878 202.167 28.5172 202.167 26.4699C202.167 25.4739 202.361 24.5332 202.748 23.6479C203.136 22.7073 203.689 21.905 204.409 21.241C205.129 20.577 205.959 20.0513 206.9 19.664C207.841 19.2213 208.865 19 209.973 19C211.024 19 212.021 19.1937 212.962 19.581C213.958 19.9683 214.789 20.494 215.453 21.158C216.173 21.822 216.726 22.6243 217.114 23.5649C217.557 24.4502 217.778 25.4186 217.778 26.4699ZM203.163 81V39.6667H216.782V81H203.163Z" fill="#1A202C"/>
<path d="M280.382 81V58.4244C280.382 57.2624 280.298 56.1557 280.132 55.1044C279.966 53.9978 279.662 53.0571 279.219 52.2825C278.776 51.5078 278.167 50.8992 277.392 50.4565C276.672 49.9585 275.704 49.7095 274.486 49.7095C273.323 49.7095 272.299 49.9585 271.413 50.4565C270.583 50.9545 269.863 51.6185 269.254 52.4485C268.701 53.2784 268.285 54.2468 268.009 55.3534C267.732 56.4047 267.593 57.5114 267.593 58.6734V81H253.975V57.4284C253.975 55.0491 253.504 53.1678 252.563 51.7845C251.622 50.4012 250.128 49.7095 248.079 49.7095C245.92 49.7095 244.232 50.5672 243.014 52.2825C241.851 53.9978 241.27 56.1004 241.27 58.5904V81H227.568V39.6667H240.772V45.3936H240.938C241.436 44.5083 242.045 43.6506 242.765 42.8206C243.54 41.9906 244.453 41.2713 245.505 40.6626C246.557 39.9987 247.719 39.473 248.993 39.0857C250.321 38.6984 251.761 38.5047 253.311 38.5047C256.3 38.5047 258.819 39.1133 260.867 40.3307C262.971 41.548 264.604 43.2909 265.767 45.5596C267.151 43.4016 268.922 41.6863 271.081 40.4137C273.24 39.141 275.87 38.5047 278.97 38.5047C281.793 38.5047 284.146 39.0303 286.028 40.0817C287.966 41.0776 289.516 42.4056 290.678 44.0656C291.841 45.6702 292.671 47.4962 293.17 49.5435C293.723 51.5355 294 53.4998 294 55.4364V81H280.382Z" fill="#1A202C"/>
<path d="M354.965 37.6685C354.965 41.2081 354.323 44.2053 353.039 46.6602C351.755 49.058 350.024 50.9991 347.847 52.4834C345.67 53.9678 343.158 55.0525 340.311 55.7376C337.464 56.4226 334.506 56.7652 331.436 56.7652H324.318V79.6298H310V19H331.771C335.008 19 338.023 19.3425 340.814 20.0276C343.661 20.6556 346.117 21.7118 348.182 23.1961C350.304 24.6234 351.95 26.5359 353.123 28.9337C354.351 31.2744 354.965 34.186 354.965 37.6685ZM340.646 37.7541C340.646 36.3269 340.367 35.1565 339.809 34.2431C339.251 33.3296 338.497 32.616 337.548 32.1022C336.599 31.5884 335.511 31.2459 334.283 31.0746C333.11 30.9033 331.882 30.8177 330.598 30.8177H324.318V45.1188H330.347C331.687 45.1188 332.971 45.0046 334.199 44.7762C335.427 44.5479 336.515 44.1482 337.464 43.5773C338.469 43.0064 339.251 42.2643 339.809 41.3508C340.367 40.3803 340.646 39.1814 340.646 37.7541Z" fill="#26A887"/>
<path d="M387.356 53.4254C387.356 51.1989 386.659 49.2864 385.263 47.6878C383.923 46.0893 381.886 45.2901 379.15 45.2901C377.811 45.2901 376.583 45.5184 375.466 45.9751C374.35 46.3748 373.373 46.9457 372.536 47.6878C371.698 48.43 371.028 49.3149 370.526 50.3425C370.024 51.3131 369.744 52.3407 369.689 53.4254H387.356ZM400 58.8204C400 59.3913 400 59.9622 400 60.5331C400 61.1041 399.972 61.6464 399.916 62.1602H369.689C369.8 63.3591 370.135 64.4438 370.693 65.4144C371.307 66.3849 372.061 67.2413 372.954 67.9834C373.903 68.6685 374.936 69.2109 376.052 69.6105C377.225 70.0101 378.425 70.2099 379.653 70.2099C381.83 70.2099 383.672 69.8103 385.179 69.011C386.686 68.1547 387.915 67.07 388.864 65.7569L398.409 71.9226C396.455 74.8343 393.86 77.0893 390.622 78.6878C387.44 80.2293 383.728 81 379.485 81C376.359 81 373.401 80.5147 370.61 79.5442C367.819 78.5166 365.362 77.0608 363.241 75.1768C361.176 73.2357 359.529 70.8665 358.301 68.0691C357.129 65.2716 356.543 62.0746 356.543 58.4779C356.543 54.9954 357.129 51.8554 358.301 49.058C359.473 46.2035 361.064 43.8057 363.074 41.8646C365.083 39.8665 367.456 38.325 370.191 37.2403C372.926 36.1556 375.885 35.6133 379.067 35.6133C382.137 35.6133 384.956 36.1556 387.524 37.2403C390.092 38.268 392.297 39.7808 394.139 41.779C395.981 43.7772 397.404 46.2035 398.409 49.058C399.47 51.9125 400 55.1667 400 58.8204Z" fill="#26A887"/>
</g>
<defs>
<clipPath id="clip0_25035_2464">
<rect width="400" height="100" fill="white"/>
</clipPath>
</defs>
</svg>
