<svg xmlns="http://www.w3.org/2000/svg" width="175" height="36" fill="none"><path fill="#fff" d="M.34 10.224c0 3.54 2.078 5.856 6.096 6.776l4.052.919c2.35.545 3.405 1.77 3.405 3.712 0 2.451-2.077 3.983-5.346 3.983-3.099 0-5.074-1.498-5.142-3.847H0c.204 4.222 3.541 6.844 8.547 6.844 5.244 0 8.683-2.826 8.683-7.253 0-3.473-2.043-5.652-6.061-6.572l-4.052-.953c-2.316-.545-3.44-1.737-3.44-3.712 0-2.417 2.01-3.984 5.108-3.984 2.758 0 4.495 1.43 4.665 3.882h3.371c-.272-4.256-3.303-6.878-8.002-6.878-5.073 0-8.478 2.86-8.478 7.083zm25.488 17.978v-13.96h3.268v-2.69h-3.268v-5.21h-3.201v5.21h-3.27v2.69h3.27v13.96h3.2zm11.062.409c2.69 0 4.97-1.192 5.822-3.099l.34 2.69h2.724V17.75c0-4.495-2.792-6.674-6.912-6.674-4.29 0-7.15 2.281-7.15 5.754h2.791c0-2.009 1.533-3.2 4.223-3.2 2.247 0 3.916.987 3.916 3.78v.476l-5.244.409c-3.916.306-6.197 2.213-6.197 5.277 0 3.031 2.11 5.04 5.686 5.04zm.918-2.486c-2.077 0-3.37-.885-3.37-2.656 0-1.634 1.157-2.724 3.983-2.996l4.257-.34v.885c0 3.132-1.84 5.107-4.87 5.107zM48.46 35.66c.851.204 1.737.34 2.792.34 2.554 0 4.222-1.192 5.346-4.052l7.866-20.396H61.16l-4.937 13.416-4.836-13.416h-3.37l6.707 17.536-.578 1.6c-.784 2.111-2.01 2.35-3.542 2.35H48.46v2.622z"/><path fill="#65AFF1" fill-rule="evenodd" d="m91.804 25.823.313.734 1.017 2.399a1.101 1.101 0 0 1-.581 1.438l-2.486 1.054a1.098 1.098 0 0 1-1.438-.581l-2.747-6.475a1.098 1.098 0 0 1 .582-1.438c.4-.09.797-.22 1.187-.387A7.092 7.092 0 1 0 82.112 9.51a7.053 7.053 0 0 0-2.795 2.13c-.282.384-.756.575-1.125.335l-2.924-1.87c-.386-.334-.261-.86-.014-1.208a11.933 11.933 0 0 1 4.944-3.892c6.092-2.583 13.124.258 15.71 6.35 2.239 5.281.404 11.266-4.093 14.451l-.014.01.003.008z" clip-rule="evenodd"/><path fill="#F2C26E" fill-rule="evenodd" d="M85.827 27.985c-5 .397-9.912-2.395-11.98-7.269a11.932 11.932 0 0 1 .196-9.79c.08.098.17.192.271.283l.08.07.087.055c.975.623 1.95 1.243 2.921 1.866.272.174.557.275.846.317a7.064 7.064 0 0 0 .1 5.288 7.092 7.092 0 0 0 6.212 4.317 2.53 2.53 0 0 0 .024 1.932l1.243 2.928v.003z" clip-rule="evenodd"/><path fill="#65AFF1" d="M77.85 1.054a.504.504 0 1 1 .93-.393l.926 2.18a.504.504 0 1 1-.93.393l-.925-2.18zM90.495.47a.507.507 0 0 1 .658-.278c.258.105.383.4.279.658l-.888 2.193a.506.506 0 0 1-.936-.38l.887-2.192zm9.351 8.533a.503.503 0 1 1 .393.93l-2.179.926a.504.504 0 1 1-.393-.93l2.18-.926zm.585 12.645a.506.506 0 0 1-.38.936l-2.193-.888a.506.506 0 0 1 .38-.936l2.193.888z"/><path fill="#65AFF1" d="m97.767 20.569.48.195-.379.936-.48-.195"/><path fill="#65AFF1" d="m98.24 20.758.018.007-.38.937-.017-.007"/><path fill="#65AFF1" d="m98.251 20.768.017.007-.379.933-.017-.004"/><path fill="#65AFF1" d="m98.262 20.773.017.007-.38.936-.017-.007"/><path fill="#65AFF1" d="m98.272 20.773.017.007-.379.936-.017-.007"/><path fill="#65AFF1" d="m98.283 20.778.017.007-.38.936-.017-.007"/><path fill="#65AFF1" d="m98.293 20.787.017.004-.38.936-.017-.007"/><path fill="#65AFF1" d="m98.303 20.787.018.004-.38.94-.017-.007"/><path fill="#65AFF1" d="m98.314 20.792.017.007-.38.937-.017-.007"/><path fill="#65AFF1" d="m98.324 20.792.018.007-.38.937-.017-.007"/><path fill="#65AFF1" d="m98.335 20.797.017.007-.38.937-.017-.008"/><path fill="#65AFF1" d="m98.345 20.807.014.003-.376.937-.017-.004"/><path fill="#65AFF1" d="m98.356 20.807.013.007-.376.933-.017-.004"/><path fill="#65AFF1" d="m98.366 20.812.017.007-.379.936-.017-.007"/><path fill="#65AFF1" d="m98.376 20.817.014.006-.376.937-.017-.007"/><path fill="#65AFF1" d="m98.387 20.821.014.007-.376.937-.017-.007"/><path fill="#65AFF1" d="m98.397 20.826.014.004-.376.936-.017-.003"/><path fill="#65AFF1" d="m98.408 20.831.014.007-.376.936-.018-.007"/><path fill="#65AFF1" d="m98.418 20.836.014.007-.376.936-.017-.007"/><path fill="#65AFF1" d="m98.429 20.836.014.007-.376.936-.018-.007"/><path fill="#65AFF1" d="m98.44 20.84.013.008-.376.936-.017-.007"/><path fill="#65AFF1" d="m98.45 20.846.013.003-.375.937-.018-.004"/><path fill="#65AFF1" d="m98.46 20.85.014.007-.376.937-.018-.007"/><path fill="#65AFF1" d="m98.47 20.855.014.007-.375.937-.018-.007"/><path fill="#65AFF1" d="m98.48 20.86.015.007-.376.937-.018-.007"/><path fill="#65AFF1" d="m98.492 20.86.013.007-.38.937-.013-.007"/><path fill="#65AFF1" d="m98.502 20.87.014.003-.376.937-.018-.004"/><path fill="#65AFF1" d="m98.512 20.875.014.007-.38.936-.013-.007"/><path fill="#65AFF1" d="m98.523 20.875.014.007-.38.936-.014-.007"/><path fill="#65AFF1" d="m98.533 20.875.014.007-.38.936-.013-.007"/><path fill="#65AFF1" d="m98.544 20.88.014.007-.38.936-.014-.007"/><path fill="#65AFF1" d="m98.554 20.89.014.003-.38.936-.014-.003"/><path fill="#65AFF1" d="m98.565 20.894.014.007-.38.937-.014-.007"/><path fill="#65AFF1" d="m98.575 20.894.014.007-.38.937-.014-.007"/><path fill="#65AFF1" d="m98.586 20.899.014.007-.38.937-.014-.008"/><path fill="#65AFF1" d="m98.596 20.904.014.007-.38.936-.014-.007"/><path fill="#65AFF1" d="m98.606 20.914.014.003-.379.936-.014-.003"/><path fill="#65AFF1" d="m98.617 20.914.013.007-.379.936-.014-.007"/><path fill="#65AFF1" d="m98.627 20.914.014.007-.38.936-.013-.007"/><path fill="#65AFF1" d="m98.634 20.919.017.006-.38.937-.013-.007"/><path fill="#65AFF1" d="m98.645 20.923.017.007-.38.937-.013-.004"/><path fill="#65AFF1" d="m98.655 20.928.017.004-.38.936-.013-.003"/><path fill="#65AFF1" d="m98.665 20.933.018.007-.38.936-.013-.007"/><path fill="#65AFF1" d="m98.676 20.938.017.007-.38.936-.013-.007"/><path fill="#65AFF1" d="m98.686 20.943.018.007-.38.936-.013-.007"/><path fill="#65AFF1" d="m98.697 20.948.017.003-.38.936-.013-.006"/><path fill="#65AFF1" d="m98.707 20.952.018.007-.38.933-.014-.003"/><path fill="#65AFF1" d="m98.717 20.957.018.007-.38.937-.014-.007"/><path fill="#65AFF1" d="m98.728 20.957.018.007-.38.937-.014-.007"/><path fill="#65AFF1" d="m98.738 20.962.018.007-.38.937-.014-.007"/><path fill="#65AFF1" d="m98.749 20.967.017.004-.379.936-.014-.003"/><path fill="#65AFF1" d="m98.76 20.972.017.007-.38.936-.014-.007"/><path fill="#65AFF1" d="m98.77 20.977.017.007-.38.936-.013-.007"/><path fill="#65AFF1" d="m98.78 20.982.018.006-.38.937-.017-.007"/><path fill="#65AFF1" d="m98.79 20.982.018.006-.38.937-.013-.007"/><path fill="#65AFF1" d="m98.801 20.991.017.004-.379.936-.017-.003"/><path fill="#65AFF1" d="m98.812 20.996.017.007-.38.937-.017-.007"/><path fill="#65AFF1" d="m98.822 20.996.017.007-.38.937-.017-.007"/><path fill="#65AFF1" d="m98.833 21.001.017.007-.38.936-.017-.006"/><path fill="#65AFF1" d="m98.843 21.001.017.007-.38.936-.017-.006"/><path fill="#65AFF1" d="m98.853 21.01.018.004-.38.937-.017-.004"/><path fill="#65AFF1" d="m98.864 21.016.017.007-.38.936-.017-.007"/><path fill="#65AFF1" d="m98.874 21.016.018.007-.38.936-.017-.007"/><path fill="#65AFF1" d="m98.885 21.02.017.007-.38.937-.017-.007"/><path fill="#65AFF1" d="m98.895 21.025.014.007-.376.937-.017-.007"/><path fill="#65AFF1" d="m98.906 21.035.017.003-.38.937-.017-.004"/><path fill="#65AFF1" d="m98.916 21.035.014.007-.376.936-.017-.007"/><path fill="#65AFF1" d="m98.927 21.035.014.007-.376.936-.018-.007"/><path fill="#65AFF1" d="m98.937 21.04.014.007-.376.936-.017-.007"/><path fill="#65AFF1" d="m98.948 21.045.014.007-.376.936-.018-.007"/><path fill="#65AFF1" d="m98.958 21.054.014.004-.376.936-.018-.003"/><path fill="#65AFF1" d="m98.968 21.054.014.007-.376.937-.017-.007"/><path fill="#65AFF1" d="m98.979 21.06.014.006-.376.937-.018-.007"/><path fill="#65AFF1" d="m98.99 21.064.013.007-.376.937L98.61 22"/><path fill="#65AFF1" d="m99 21.069.013.007-.376.936-.017-.006"/><path fill="#65AFF1" d="m99.01 21.074.014.007-.376.933-.017-.004"/><path fill="#65AFF1" d="m99.02 21.079.014.007-.376.936-.017-.007"/><path fill="#65AFF1" d="m99.031 21.079.014.007-.376.936-.017-.007"/><path fill="#65AFF1" d="m99.041 21.084.014.006-.38.937-.013-.007"/><path fill="#65AFF1" d="m99.052 21.088.014.004-.376.936-.017-.007"/><path fill="#65AFF1" d="m99.062 21.093.014.004-.38.94-.013-.007"/><path fill="#65AFF1" d="m99.073 21.098.014.007-.38.937-.014-.007"/><path fill="#65AFF1" d="m99.083 21.103.014.007-.38.936-.013-.006"/><path fill="#65AFF1" d="m99.094 21.108.014.007-.38.936-.014-.007"/><path fill="#65AFF1" d="m99.104 21.108.014.007-.38.936-.013-.007"/><path fill="#65AFF1" d="m99.115 21.118.014.007-.38.933-.014-.004"/><path fill="#65AFF1" d="m99.125 21.122.014.007-.38.937-.013-.007"/><path fill="#65AFF1" d="m99.135 21.122.014.007-.379.937-.014-.007"/><path fill="#65AFF1" d="m99.146 21.122.014.007-.38.937-.014-.007"/><path fill="#65AFF1" d="m99.156 21.132.014.004-.379.936-.014-.007"/><path fill="#65AFF1" d="m99.166 21.137.014.007-.379.936-.014-.006"/><path fill="#65AFF1" d="m99.177 21.142.014.007-.38.936-.013-.007"/><path fill="#65AFF1" d="m99.184 21.142.017.007-.38.936-.013-.007"/><path fill="#65AFF1" d="m99.198 21.147.014.007-.38.936-.013-.007"/><path fill="#65AFF1" d="m99.205 21.156.017.004-.38.936-.013-.003"/><path fill="#65AFF1" d="m99.216 21.156.017.007-.38.937-.013-.007"/><path fill="#65AFF1" d="m99.226 21.156.017.007-.38.937-.013-.007"/><path fill="#65AFF1" d="m99.237 21.161.017.007-.38.937-.013-.007"/><path fill="#65AFF1" d="m99.247 21.166.017.007-.38.937-.013-.007"/><path fill="#65AFF1" d="m99.257 21.176.018.003-.38.937-.014-.004"/><path fill="#65AFF1" d="m99.268 21.176.017.007-.38.936-.013-.007"/><path fill="#65AFF1" d="m99.278 21.18.017.008-.379.936-.014-.007"/><path fill="#65AFF1" d="m99.289 21.186.017.006-.38.937-.013-.007"/><path fill="#65AFF1" d="m99.299 21.19.017.007-.38.937-.013-.007"/><path fill="#65AFF1" d="m99.31 21.195.017.004-.38.936-.014-.003"/><path fill="#65AFF1" d="m99.32 21.2.017.007-.38.937-.013-.007"/><path fill="#65AFF1" d="m99.33 21.2.018.007-.38.937-.017-.007"/><path fill="#65AFF1" d="m99.34 21.205.018.007-.38.936-.013-.007"/><path fill="#65AFF1" d="m99.351 21.21.018.007-.38.936-.017-.007"/><path fill="#65AFF1" d="m99.362 21.215.017.003-.38.937-.017-.004"/><path fill="#65AFF1" d="m99.372 21.22.018.007-.38.936-.017-.007"/><path fill="#65AFF1" d="m99.383 21.224.017.007-.38.937-.017-.007"/><path fill="#65AFF1" d="m99.393 21.23.018.006-.38.937-.017-.007"/><path fill="#65AFF1" d="m99.403 21.23.018.006-.38.937-.017-.007"/><path fill="#65AFF1" d="m99.414 21.239.017.003-.38.937-.017-.004"/><path fill="#65AFF1" d="m99.424 21.244.018.007-.38.936-.017-.007"/><path fill="#65AFF1" d="m99.435 21.244.017.007-.38.936-.017-.007"/><path fill="#65AFF1" d="m99.445 21.249.014.007-.376.936-.017-.007"/><path fill="#65AFF1" d="m99.456 21.253.017.004-.38.936-.017-.007"/><path fill="#65AFF1" d="m99.466 21.258.014.007-.376.933-.017-.003"/><path fill="#65AFF1" d="m99.477 21.263.014.007-.376.937-.018-.007"/><path fill="#65AFF1" d="m99.487 21.263.014.007-.376.937-.017-.007"/><path fill="#65AFF1" d="m99.498 21.268.014.007-.376.937-.018-.007"/><path fill="#65AFF1" d="m99.508 21.278.014.003-.376.937-.018-.004"/><path fill="#65AFF1" d="m99.518 21.283.014.003-.376.94-.017-.007"/><path fill="#65AFF1" d="m99.529 21.283.014.007-.377.936-.017-.007"/><path fill="#65AFF1" d="m99.54 21.283.013.007-.376.936-.017-.007"/><path fill="#65AFF1" d="m99.55 21.288.014.006-.376.937-.018-.007"/><path fill="#65AFF1" d="m99.56 21.297.014.004-.376.936-.017-.003"/><path fill="#65AFF1" d="m99.57 21.297.014.007-.376.933-.017-.003"/><path fill="#65AFF1" d="m99.581 21.302.014.007-.376.936-.017-.006"/><path fill="#65AFF1" d="m99.591 21.307.014.007-.38.936-.013-.007"/><path fill="#65AFF1" d="m99.602 21.312.014.007-.376.936-.017-.007"/><path fill="#65AFF1" d="m99.612 21.317.014.003-.376.937-.017-.004"/><path fill="#65AFF1" d="m99.623 21.322.014.006-.38.937-.014-.007"/><path fill="#65AFF1" d="m99.633 21.322.014.006-.38.937-.013-.007"/><path fill="#65AFF1" d="m99.644 21.326.014.007-.38.937-.014-.007"/><path fill="#65AFF1" d="m99.654 21.331.014.007-.38.937-.013-.007"/><path fill="#65AFF1" d="m99.665 21.336.013.004-.379.936-.014-.003"/><path fill="#65AFF1" d="m99.675 21.341.014.007-.38.936-.014-.007"/><path fill="#65AFF1" d="m99.686 21.346.013.007-.379.936-.014-.007"/><path fill="#65AFF1" d="m99.696 21.35.014.008-.38.936-.014-.007"/><path fill="#65AFF1" d="m99.707 21.35.013.008-.38.936-.013-.007"/><path fill="#65AFF1" d="m99.717 21.36.014.004-.38.936-.014-.003"/><path fill="#65AFF1" d="m99.727 21.365.014.007-.38.937-.013-.007"/><path fill="#65AFF1" d="m99.734 21.365.018.007-.38.937-.014-.007"/><path fill="#65AFF1" d="m99.748 21.37.014.007-.38.937-.013-.007"/><path fill="#65AFF1" d="m99.755 21.37.018.007-.38.937-.014-.007"/><path fill="#65AFF1" d="m99.766 21.38.017.003-.38.937-.014-.004"/><path fill="#65AFF1" d="m99.776 21.385.017.007-.379.936-.014-.007"/><path fill="#65AFF1" d="m99.787 21.39.017.006-.38.937-.014-.007"/><path fill="#65AFF1" d="m99.797 21.39.017.006-.379.937-.014-.007"/><path fill="#65AFF1" d="m99.807 21.4.018.003-.38.936-.014-.007"/><path fill="#65AFF1" d="m99.818 21.404.017.004-.38.94-.013-.007"/><path fill="#65AFF1" d="m99.828 21.404.017.007-.379.936-.014-.006"/><path fill="#65AFF1" d="m99.839 21.404.017.007-.38.936-.013-.006"/><path fill="#65AFF1" d="m99.849 21.409.017.007-.38.936-.013-.007"/><path fill="#65AFF1" d="m99.86 21.414.017.007-.38.936-.013-.007"/><path fill="#65AFF1" d="m99.87 21.424.017.006-.38.933-.013-.003"/><path fill="#65AFF1" d="m99.88 21.424.018.006-.38.937-.017-.007"/><path fill="#65AFF1" d="m99.89 21.428.018.007-.38.937-.013-.007"/><path fill="#65AFF1" d="m99.901 21.433.018.007-.38.937-.017-.007"/><path fill="#65AFF1" d="m99.912 21.438.017.004-.38.936-.017-.007"/><path fill="#65AFF1" d="m99.922 21.443.017.007-.379.936-.014-.007"/><path fill="#65AFF1" d="m99.933 21.443.017.007-.38.936-.017-.007"/><path fill="#65AFF1" d="m99.943 21.448.018.007-.38.936-.017-.007"/><path fill="#65AFF1" d="m99.954 21.453.017.007-.38.936-.017-.007"/><path fill="#65AFF1" d="m99.964 21.457.017.008-.38.936-.017-.003"/><path fill="#65AFF1" d="m99.974 21.462.018.007-.38.937-.017-.007"/><path fill="#65AFF1" d="m99.985 21.467.017.007-.38.937-.017-.007"/><path fill="#65AFF1" d="m99.995 21.472.014.007-.376.937-.017-.008"/><path fill="#65AFF1" d="m100.006 21.477.017.007-.38.936-.017-.007"/><path fill="#65AFF1" d="m100.016 21.482.014.003-.376.937-.017-.004"/><path fill="#65AFF1" d="m100.027 21.487.014.007-.376.936-.018-.007"/><path fill="#65AFF1" d="m100.037 21.487.017.007-.379.936-.017-.007"/><path fill="#65AFF1" d="m100.048 21.491.014.008-.376.936-.018-.007"/><path fill="#65AFF1" d="m100.058 21.491.014.008-.376.936-.017-.007"/><path fill="#65AFF1" d="m100.068 21.501.014.004-.376.936-.017-.003"/><path fill="#65AFF1" d="m100.079 21.506.014.007-.376.936-.018-.007"/><path fill="#65AFF1" d="m100.089 21.51.014.008-.376.936-.017-.007"/><path fill="#65AFF1" d="m100.1 21.51.014.008-.376.936-.018-.007"/><path fill="#65AFF1" d="m100.11 21.516.014.007-.376.936-.017-.007"/><path fill="#65AFF1" d="m100.121 21.526.014.003-.376.936-.018-.003"/><path fill="#65AFF1" d="m100.131 21.53.014.007-.376.937-.017-.007"/><path fill="#65AFF1" d="m100.142 21.53.014.007-.38.937-.014-.007"/><path fill="#65AFF1" d="m100.152 21.53.014.007-.376.937-.017-.007"/><path fill="#65AFF1" d="m100.162 21.535.014.007-.38.937-.013-.007"/><path fill="#65AFF1" d="m100.173 21.545.014.003-.38.937-.014-.004"/><path fill="#65AFF1" d="m100.183 21.545.014.007-.38.936-.013-.007"/><path fill="#65AFF1" d="m100.194 21.55.014.007-.38.936-.014-.007"/><path fill="#65AFF1" d="m100.204 21.555.014.007-.38.936-.013-.007"/><path fill="#65AFF1" d="m100.215 21.564.013.004-.379.936-.014-.007"/><path fill="#65AFF1" d="m100.225 21.564.014.007-.38.933-.013-.003"/><path fill="#65AFF1" d="m100.236 21.564.013.007-.379.937-.014-.007"/><path fill="#65AFF1" d="m100.246 21.57.014.006-.38.937-.013-.007"/><path fill="#65AFF1" d="m100.256 21.574.014.007-.38.936-.013-.006"/><path fill="#65AFF1" d="m100.267 21.579.014.007-.38.936-.014-.003"/><path fill="#65AFF1" d="m100.277 21.584.014.003-.38.937-.013-.004"/><path fill="#65AFF1" d="m100.284 21.589.018.007-.38.936-.014-.007"/><path fill="#65AFF1" d="m100.298 21.593.014.008-.38.936-.013-.007"/><path fill="#65AFF1" d="m100.305 21.598.018.007-.38.937-.014-.007"/><path fill="#65AFF1" d="m100.316 21.603.017.004-.38.936-.014-.007"/><path fill="#65AFF1" d="m100.33 21.608.014.007-.38.933-.014-.003"/><path fill="#65AFF1" d="m100.336 21.608.018.007-.38.937-.014-.008"/><path fill="#65AFF1" d="m100.347 21.613.017.007-.379.936-.014-.007"/><path fill="#65AFF1" d="m100.357 21.618.018.007-.38.936-.014-.007"/><path fill="#65AFF1" d="m100.368 21.623.017.003-.379.937-.014-.004"/><path fill="#65AFF1" d="m100.378 21.628.017.006-.379.937-.014-.007"/><path fill="#65AFF1" d="m100.389 21.632.017.007-.379.937-.014-.007"/><path fill="#65AFF1" d="m100.399 21.632.017.007-.379.937-.014-.007"/><path fill="#65AFF1" d="m100.41 21.637.017.007-.379.937-.014-.007"/><path fill="#65AFF1" d="m100.42 21.647.017.003-.379.937-.014-.004"/><path fill="#65AFF1" d="m100.431 21.652.017.007-.38.936-.013-.007"/><path fill="#65AFF1" d="m100.441 21.652.017.007-.379.936-.014-.007"/><path fill="#65AFF1" d="m100.451 21.652.018.007-.38.936-.017-.007"/><path fill="#65AFF1" d="m100.462 21.657.017.007-.379.936-.018-.007"/><path fill="#65AFF1" d="m100.472 21.666.018.004-.38.936-.017-.003"/><path fill="#65AFF1" d="m100.483 21.671.017.007-.379.937-.018-.007"/><path fill="#65AFF1" d="m100.493 21.671.018.007-.38.937-.017-.007"/><path fill="#65AFF1" d="m100.504 21.676.017.007-.38.936-.017-.006"/><path fill="#65AFF1" d="m100.514 21.68.017.008-.379.936-.018-.007"/><path fill="#65AFF1" d="m100.524 21.686.018.003-.38.937-.017-.004"/><path fill="#65AFF1" d="m100.535 21.686.017.007-.379.936-.018-.007"/><path fill="#65AFF1" d="m100.545 21.69.014.008-.376.936-.017-.007"/><path fill="#65AFF1" d="m100.556 21.695.017.007-.379.937-.018-.007"/><path fill="#65AFF1" d="m100.566 21.7.018.007-.38.937-.017-.007"/><path fill="#65AFF1" d="m100.577 21.705.014.004-.376.936-.018-.003"/><path fill="#65AFF1" d="m100.587 21.71.014.007-.376.937-.017-.008"/><path fill="#65AFF1" d="m100.598 21.715.014.007-.376.936-.018-.007"/><path fill="#65AFF1" d="m100.608 21.72.014.007-.376.936-.018-.007"/><path fill="#65AFF1" d="m100.618 21.72.014.007-.376.936-.017-.007"/><path fill="#65AFF1" d="m100.629 21.73.014.006-.376.933-.018-.003"/><path fill="#65AFF1" d="m100.639 21.73.014.006-.376.937-.017-.007"/><path fill="#65AFF1" d="m100.65 21.734.014.007-.376.937-.018-.007"/><path fill="#65AFF1" d="m100.66 21.74.014.006-.376.937-.017-.007"/><path fill="#65AFF1" d="m100.671 21.744.014.003-.376.937-.018-.007"/><path fill="#65AFF1" d="m100.681 21.749.014.007-.376.936-.017-.007"/><path fill="#65AFF1" d="m100.692 21.754.014.007-.376.936-.018-.007"/><path fill="#65AFF1" d="m100.702 21.759.014.007-.376.936-.017-.007"/><path fill="#65AFF1" d="m100.712 21.759.014.007-.379.936-.014-.007"/><path fill="#65AFF1" d="m100.723 21.764.014.006-.38.937-.014-.004"/><path fill="#65AFF1" d="m100.733 21.773.014.007-.379.937-.014-.007"/><path fill="#65AFF1" d="m100.744 21.773.014.007-.38.937-.014-.007"/><path fill="#65AFF1" d="m100.754 21.773.014.007-.379.937-.014-.007"/><path fill="#65AFF1" d="m100.765 21.778.013.007-.379.936-.014-.006"/><path fill="#65AFF1" d="m100.775 21.788.014.003-.379.937-.014-.007"/><path fill="#65AFF1" d="m100.785 21.793.014.007-.379.936-.014-.007"/><path fill="#65AFF1" d="m100.796 21.793.014.007-.379.936-.014-.007"/><path fill="#65AFF1" d="m100.806 21.797.014.007-.379.937-.014-.007"/><path fill="#65AFF1" d="m100.817 21.802.014.007-.38.937-.014-.007"/><path fill="#65AFF1" d="m100.827 21.812.014.003-.379.937-.014-.003"/><path fill="#65AFF1" d="m100.838 21.812.014.007-.38.937-.014-.008"/><path fill="#65AFF1" d="m100.848 21.812.014.007-.38.937-.013-.008"/><path fill="#65AFF1" d="m100.859 21.817.014.007-.38.936-.014-.007"/><path fill="#65AFF1" d="m100.865 21.822.018.007-.38.936-.013-.007"/><path fill="#65AFF1" d="m100.88 21.827.017.007-.376.936-.021-.007"/><path fill="#F2C26E" d="M79.257 31.583a.506.506 0 0 1-.657.278.507.507 0 0 1-.279-.658l.888-2.193a.507.507 0 0 1 .658-.278c.257.104.383.4.278.658l-.888 2.193z"/><path fill="#F2C26E" d="m80.333 28.917-.191.48-.937-.379.192-.48"/><path fill="#F2C26E" d="m80.142 29.388-.007.018-.937-.38.007-.017"/><path fill="#F2C26E" d="m80.138 29.398-.007.018-.936-.38.007-.017"/><path fill="#F2C26E" d="m80.135 29.413-.007.017-.937-.38.007-.017"/><path fill="#F2C26E" d="m80.131 29.422-.007.018-.936-.38.007-.017"/><path fill="#F2C26E" d="m80.124 29.432-.003.018-.937-.38.004-.017"/><path fill="#F2C26E" d="m80.12 29.442-.006.017-.937-.38.007-.017"/><path fill="#F2C26E" d="m80.117 29.451-.007.018-.936-.38.007-.017"/><path fill="#F2C26E" d="m80.114 29.466-.007.017-.937-.379.007-.017"/><path fill="#F2C26E" d="m80.11 29.47-.007.018-.936-.38.007-.017"/><path fill="#F2C26E" d="m80.103 29.485-.003.018-.937-.38.004-.017"/><path fill="#F2C26E" d="m80.1 29.495-.007.018-.937-.38.007-.017"/><path fill="#F2C26E" d="m80.096 29.505-.007.014-.936-.376.007-.018"/><path fill="#F2C26E" d="m80.093 29.515-.007.014-.936-.376.006-.018"/><path fill="#F2C26E" d="m80.09 29.524-.007.014-.937-.376.007-.017"/><path fill="#F2C26E" d="m80.083 29.538-.004.015-.936-.376.003-.017"/><path fill="#F2C26E" d="m80.079 29.549-.007.014-.937-.376.007-.018"/><path fill="#F2C26E" d="m80.076 29.558-.007.014-.937-.376.007-.017"/><path fill="#F2C26E" d="m80.072 29.568-.007.014-.936-.376.006-.017"/><path fill="#F2C26E" d="m80.065 29.578-.003.014-.937-.376.007-.018"/><path fill="#F2C26E" d="m80.062 29.592-.007.014-.933-.376.003-.017"/><path fill="#F2C26E" d="m80.058 29.597-.007.014-.936-.376.007-.017"/><path fill="#F2C26E" d="m80.055 29.612-.007.014-.937-.376.007-.018"/><path fill="#F2C26E" d="m80.051 29.622-.007.013-.936-.376.007-.017"/><path fill="#F2C26E" d="m80.044 29.631-.003.014-.937-.376.004-.017"/><path fill="#F2C26E" d="m80.04 29.64-.003.015-.94-.38.007-.014"/><path fill="#F2C26E" d="m80.037 29.65-.007.015-.936-.38.007-.014"/><path fill="#F2C26E" d="m80.034 29.665-.007.014-.937-.376.007-.017"/><path fill="#F2C26E" d="m80.03 29.67-.007.014-.936-.38.007-.013"/><path fill="#F2C26E" d="m80.023 29.68-.003.014-.937-.38.007-.014m.93.394-.007.014-.933-.38.003-.014"/><path fill="#F2C26E" d="m80.016 29.704-.007.014-.936-.38.007-.013"/><path fill="#F2C26E" d="m80.013 29.714-.007.014-.937-.38.007-.014"/><path fill="#F2C26E" d="m80.01 29.724-.008.013-.936-.38.007-.013"/><path fill="#F2C26E" d="m80.002 29.733-.003.014-.937-.38.004-.013m.933.393-.007.015-.936-.38.006-.014"/><path fill="#F2C26E" d="m79.996 29.753-.007.014-.937-.38.007-.014"/><path fill="#F2C26E" d="m79.992 29.767-.007.014-.937-.38.007-.013"/><path fill="#F2C26E" d="m79.989 29.777-.008.014-.936-.38.007-.014"/><path fill="#F2C26E" d="m79.982 29.783-.004.017-.936-.379.003-.014"/><path fill="#F2C26E" d="m79.978 29.793-.007.017-.936-.38.007-.013"/><path fill="#F2C26E" d="m79.975 29.806-.007.014-.937-.38.007-.013"/><path fill="#F2C26E" d="m79.971 29.817-.007.017-.936-.379.007-.014"/><path fill="#F2C26E" d="m79.968 29.827-.007.017-.937-.38.007-.013"/><path fill="#F2C26E" d="m79.96 29.837-.003.017-.936-.38.003-.013"/><path fill="#F2C26E" d="m79.957 29.846-.007.018-.936-.38.007-.014"/><path fill="#F2C26E" d="m79.954 29.856-.007.017-.937-.38.007-.013"/><path fill="#F2C26E" d="m79.95 29.87-.007.018-.936-.38.007-.014"/><path fill="#F2C26E" d="m79.947 29.875-.007.018-.937-.38.007-.014"/><path fill="#F2C26E" d="m79.94 29.89-.004.017-.936-.38.003-.014"/><path fill="#F2C26E" d="m79.936 29.9-.007.017-.936-.38.007-.013"/><path fill="#F2C26E" d="m79.933 29.91-.007.017-.936-.38.007-.014"/><path fill="#F2C26E" d="m79.93 29.92-.008.016-.936-.379.007-.014"/><path fill="#F2C26E" d="m79.926 29.927-.007.018-.937-.38.008-.018"/><path fill="#F2C26E" d="m79.919 29.943-.004.018-.94-.38.008-.014"/><path fill="#F2C26E" d="m79.916 29.953-.007.018-.937-.38.007-.014"/><path fill="#F2C26E" d="m79.912 29.961-.007.018-.936-.38.007-.018"/><path fill="#F2C26E" d="m79.909 29.97-.008.018-.936-.379.007-.018"/><path fill="#F2C26E" d="m79.905 29.98-.007.018-.936-.38.007-.017"/><path fill="#F2C26E" d="m79.898 29.995-.007.018-.933-.38.003-.017"/><path fill="#F2C26E" d="m79.895 30-.007.018-.937-.38.007-.017"/><path fill="#F2C26E" d="m79.891 30.015-.007.017-.936-.38.007-.017"/><path fill="#F2C26E" d="m79.887 30.025-.007.017-.936-.38.007-.017"/><path fill="#F2C26E" d="m79.88 30.034-.003.018-.936-.38.007-.017"/><path fill="#F2C26E" d="m79.877 30.044-.007.017-.936-.38.007-.017"/><path fill="#F2C26E" d="m79.874 30.054-.007.014-.937-.376.007-.018"/><path fill="#F2C26E" d="m79.87 30.068-.007.014-.936-.376.007-.017"/><path fill="#F2C26E" d="m79.867 30.078-.007.014-.937-.376.007-.018"/><path fill="#F2C26E" d="m79.863 30.088-.007.014-.936-.376.003-.018"/><path fill="#F2C26E" d="m79.856 30.097-.007.014-.936-.376.007-.017"/><path fill="#F2C26E" d="m79.853 30.107-.007.014-.937-.376.007-.017"/><path fill="#F2C26E" d="m79.85 30.122-.007.014-.937-.376.007-.018"/><path fill="#F2C26E" d="m79.846 30.127-.007.014-.937-.376.007-.018"/><path fill="#F2C26E" d="m79.839 30.14-.004.015-.936-.376.003-.017"/><path fill="#F2C26E" d="m79.835 30.15-.007.015-.936-.376.007-.018"/><path fill="#F2C26E" d="m79.832 30.156-.007.014-.937-.376.007-.018"/><path fill="#F2C26E" d="m79.829 30.17-.007.014-.937-.376.007-.017"/><path fill="#F2C26E" d="m79.825 30.18-.007.014-.936-.376.006-.018"/><path fill="#F2C26E" d="m79.818 30.194-.004.015-.936-.38.003-.014"/><path fill="#F2C26E" d="m79.815 30.2-.007.013-.937-.376.007-.017"/><path fill="#F2C26E" d="m79.811 30.21-.007.013-.936-.376.007-.017"/><path fill="#F2C26E" d="m79.808 30.224-.007.014-.937-.38.007-.014"/><path fill="#F2C26E" d="m79.804 30.233-.007.014-.936-.38.007-.013"/><path fill="#F2C26E" d="m79.797 30.243-.003.014-.937-.38.004-.013"/><path fill="#F2C26E" d="m79.794 30.253-.007.014-.937-.38.007-.014"/><path fill="#F2C26E" d="m79.79 30.262-.007.014-.936-.379.007-.014"/><path fill="#F2C26E" d="m79.787 30.277-.007.014-.937-.38.007-.013"/><path fill="#F2C26E" d="m79.783 30.282-.007.014-.936-.38.007-.014"/><path fill="#F2C26E" d="m79.776 30.296-.003.014-.937-.379.004-.015"/><path fill="#F2C26E" d="m79.773 30.306-.007.014-.937-.38.007-.013"/><path fill="#F2C26E" d="m79.77 30.316-.008.014-.936-.38.007-.014"/><path fill="#F2C26E" d="m79.766 30.326-.007.014-.937-.38.007-.014"/><path fill="#F2C26E" d="m79.759 30.335-.004.014-.936-.38.007-.013m.929.394-.003.014-.937-.38.004-.014"/><path fill="#F2C26E" d="m79.752 30.356-.007.018-.937-.38.007-.014"/><path fill="#F2C26E" d="m79.748 30.366-.007.017-.936-.38.007-.013"/><path fill="#F2C26E" d="m79.745 30.376-.007.017-.936-.38.007-.013"/><path fill="#F2C26E" d="m79.741 30.385-.007.018-.936-.38.004-.014"/><path fill="#F2C26E" d="m79.734 30.4-.003.017-.94-.38.007-.014"/><path fill="#F2C26E" d="m79.73 30.405-.006.017-.937-.38.007-.013"/><path fill="#F2C26E" d="m79.728 30.42-.007.017-.937-.38.007-.014"/><path fill="#F2C26E" d="m79.724 30.429-.007.017-.936-.379.007-.014"/><path fill="#F2C26E" d="m79.717 30.439-.004.017-.936-.38.004-.013"/><path fill="#F2C26E" d="m79.713 30.448-.007.018-.933-.38.004-.013"/><path fill="#F2C26E" d="m79.71 30.458-.007.018-.937-.38.007-.014"/><path fill="#F2C26E" d="m79.707 30.473-.007.017-.937-.38.007-.013"/><path fill="#F2C26E" d="m79.703 30.482-.007.018-.936-.38.007-.014"/><path fill="#F2C26E" d="m79.696 30.487-.003.018-.937-.38.004-.014"/><path fill="#F2C26E" d="m79.693 30.502-.007.017-.937-.38.007-.014"/><path fill="#F2C26E" d="m79.689 30.51-.007.018-.936-.38.006-.017"/><path fill="#F2C26E" d="m79.686 30.525-.007.017-.937-.38.007-.017"/><path fill="#F2C26E" d="m79.682 30.53-.007.017-.936-.38.007-.017"/><path fill="#F2C26E" d="m79.675 30.544-.003.018-.937-.38.004-.017"/><path fill="#F2C26E" d="m79.672 30.554-.007.017-.937-.38.007-.017"/><path fill="#F2C26E" d="m79.668 30.564-.007.017-.936-.38.007-.017"/><path fill="#F2C26E" d="m79.665 30.573-.007.018-.937-.38.007-.017"/><path fill="#F2C26E" d="m79.661 30.583-.007.017-.936-.379.007-.017"/><path fill="#F2C26E" d="m79.654 30.598-.003.014-.936-.376.003-.018"/><path fill="#F2C26E" d="m79.65 30.607-.006.018-.937-.38.007-.017"/><path fill="#F2C26E" d="m79.647 30.617-.007.014-.936-.376.007-.017"/><path fill="#F2C26E" d="m79.644 30.627-.007.014-.936-.376.007-.018"/><path fill="#F2C26E" d="m79.64 30.637-.006.013-.937-.376.007-.017"/><path fill="#F2C26E" d="m79.634 30.65-.004.015-.936-.376.003-.017"/><path fill="#F2C26E" d="m79.63 30.656-.007.014-.936-.376.007-.018"/><path fill="#F2C26E" d="m79.626 30.67-.007.014-.936-.376.007-.017"/><path fill="#F2C26E" d="m79.623 30.68-.007.014-.936-.376.007-.017"/><path fill="#F2C26E" d="m79.62 30.69-.007.014-.937-.376.007-.018"/><path fill="#F2C26E" d="m79.613 30.7-.004.014-.936-.377.003-.017"/><path fill="#F2C26E" d="m79.61 30.71-.008.013-.936-.376.007-.017"/><path fill="#F2C26E" d="m79.605 30.719-.007.014-.936-.376.007-.017"/><path fill="#F2C26E" d="m79.602 30.729-.007.014-.936-.376.007-.018"/><path fill="#F2C26E" d="m79.599 30.738-.007.014-.937-.376.007-.017"/><path fill="#F2C26E" d="m79.592 30.752-.007.015-.933-.376.003-.017"/><path fill="#F2C26E" d="m79.588 30.763-.007.014-.936-.376.007-.018"/><path fill="#F2C26E" d="m79.585 30.772-.007.014-.937-.38.007-.013"/><path fill="#F2C26E" d="m79.581 30.782-.007.014-.936-.38.007-.013"/><path fill="#F2C26E" d="m79.574 30.792-.003.014-.937-.38.007-.014m.929.394-.006.014-.937-.38.007-.014"/><path fill="#F2C26E" d="m79.567 30.811-.007.014-.936-.38.007-.013"/><path fill="#F2C26E" d="m79.564 30.826-.007.014-.937-.38.007-.014"/><path fill="#F2C26E" d="m79.56 30.836-.007.014-.936-.38.007-.014"/><path fill="#F2C26E" d="m79.557 30.845-.007.014-.936-.38.003-.013"/><path fill="#F2C26E" d="m79.55 30.855-.007.014-.937-.38.007-.014"/><path fill="#F2C26E" d="m79.546 30.865-.007.014-.936-.38.007-.014"/><path fill="#F2C26E" d="m79.543 30.88-.007.013-.936-.38.007-.013"/><path fill="#F2C26E" d="m79.54 30.886-.008.017-.936-.38.007-.014"/><path fill="#F2C26E" d="m79.532 30.899-.003.014-.936-.38.007-.014"/><path fill="#F2C26E" d="m79.529 30.908-.007.014-.937-.38.008-.013"/><path fill="#F2C26E" d="m79.526 30.915-.007.017-.937-.38.007-.013"/><path fill="#F2C26E" d="m79.522 30.93-.007.017-.936-.38.007-.014"/><path fill="#F2C26E" d="m79.518 30.934-.007.017-.936-.379.007-.014"/><path fill="#F2C26E" d="m79.511 30.949-.003.017-.936-.38.003-.014"/><path fill="#F2C26E" d="m79.508 30.958-.007.018-.936-.38.007-.014"/><path fill="#F2C26E" d="m79.505 30.968-.007.017-.937-.379.007-.014"/><path fill="#F2C26E" d="m79.501 30.978-.007.017-.936-.38.007-.013"/><path fill="#F2C26E" d="m79.498 30.988-.007.017-.937-.38.007-.014"/><path fill="#F2C26E" d="m79.49 30.997-.003.018-.936-.38.003-.014"/><path fill="#F2C26E" d="m79.487 31.012-.007.017-.936-.38.007-.014"/><path fill="#F2C26E" d="m79.484 31.017-.007.017-.937-.38.007-.013"/><path fill="#F2C26E" d="m79.48 31.031-.007.018-.936-.38.007-.014"/><path fill="#F2C26E" d="m79.477 31.04-.007.018-.937-.38.007-.013"/><path fill="#F2C26E" d="m79.47 31.054-.004.018-.936-.38.004-.017"/><path fill="#F2C26E" d="m79.466 31.059-.006.017-.937-.38.007-.017"/><path fill="#F2C26E" d="m79.463 31.073-.007.018-.937-.38.007-.017"/><path fill="#F2C26E" d="m79.46 31.083-.007.018-.937-.38.007-.017"/><path fill="#F2C26E" d="m79.456 31.093-.007.017-.937-.38.007-.017"/><path fill="#F2C26E" d="m79.449 31.103-.007.017-.933-.38.004-.017"/><path fill="#F2C26E" d="m79.445 31.112-.006.018-.937-.38.007-.017"/><path fill="#F2C26E" d="m79.442 31.127-.007.017-.937-.38.007-.017"/><path fill="#F2C26E" d="m79.439 31.137-.007.017-.937-.38.007-.017"/><path fill="#F2C26E" d="m79.435 31.142-.007.013-.937-.376.007-.017"/><path fill="#F2C26E" d="m79.428 31.155-.003.018-.937-.379.004-.017"/><path fill="#F2C26E" d="m79.424 31.166-.006.017-.937-.38.007-.017"/><path fill="#F2C26E" d="m79.421 31.18-.007.014-.936-.376.007-.017"/><path fill="#F2C26E" d="m79.418 31.185-.007.014-.937-.376.007-.017"/><path fill="#F2C26E" d="m79.41 31.195-.003.014-.936-.376.007-.017"/><path fill="#F2C26E" d="m79.407 31.209-.007.014-.933-.375.004-.018"/><path fill="#F2C26E" d="m79.404 31.22-.007.013-.937-.376.007-.017"/><path fill="#F2C26E" d="m79.4 31.229-.007.014-.936-.376.007-.018"/><path fill="#F2C26E" d="m79.397 31.239-.007.014-.937-.376.007-.018"/><path fill="#F2C26E" d="m79.39 31.248-.004.014-.936-.376.003-.017"/><path fill="#F2C26E" d="m79.386 31.258-.003.014-.94-.376.007-.017"/><path fill="#F2C26E" d="m79.383 31.268-.007.014-.937-.376.008-.018"/><path fill="#F2C26E" d="m79.38 31.282-.008.014-.936-.376.007-.017"/><path fill="#F2C26E" d="m79.376 31.292-.007.014-.937-.376.007-.017"/><path fill="#F2C26E" d="m79.369 31.302-.004.014-.936-.376.003-.018"/><path fill="#F2C26E" d="m79.365 31.311-.007.014-.936-.379.007-.014"/><path fill="#F2C26E" d="m79.362 31.321-.007.014-.936-.38.007-.013"/><path fill="#F2C26E" d="m79.358 31.336-.007.014-.936-.376.007-.018"/><path fill="#F2C26E" d="m79.355 31.34-.007.015-.936-.38.007-.014"/><path fill="#F2C26E" d="m79.348 31.355-.004.014-.936-.38.004-.014"/><path fill="#F2C26E" d="m79.344 31.365-.007.014-.936-.38.007-.014"/><path fill="#F2C26E" d="m79.341 31.375-.007.014-.936-.38.007-.014"/><path fill="#F2C26E" d="m79.337 31.384-.007.014-.936-.38.007-.013"/><path fill="#F2C26E" d="m79.334 31.394-.007.014-.936-.38.007-.013m.929.393-.004.014-.936-.379.004-.014"/><path fill="#F2C26E" d="m79.323 31.418-.006.014-.937-.38.007-.013"/><path fill="#F2C26E" d="m79.32 31.423-.007.014-.936-.38.007-.013"/><path fill="#F2C26E" d="m79.317 31.434-.007.018-.937-.38.007-.014"/><path fill="#F2C26E" d="m79.313 31.448-.007.013-.936-.38.007-.013"/><path fill="#F2C26E" d="m79.306 31.461-.004.015-.936-.38.004-.014"/><path fill="#F2C26E" d="m79.303 31.463-.007.018-.937-.38.007-.014"/><path fill="#F2C26E" d="m79.3 31.477-.007.014-.937-.38.007-.014"/><path fill="#F2C26E" d="m79.296 31.488-.007.017-.937-.38.007-.013"/><path fill="#F2C26E" d="m79.292 31.497-.007.018-.936-.38.007-.014"/><path fill="#F2C26E" d="m79.285 31.507-.003.017-.937-.379.004-.014"/><path fill="#F2C26E" d="m79.282 31.517-.007.017-.937-.38.007-.013"/><path fill="#F2C26E" d="m79.279 31.527-.007.017-.937-.38.007-.013"/><path fill="#F2C26E" d="m79.275 31.541-.007.017-.936-.379.006-.014"/><path fill="#F2C26E" d="m79.268 31.546-.004.017-.936-.38.007-.013"/><path fill="#F2C26E" d="m79.264 31.56-.003.018-.936-.38.003-.014"/><path fill="#F2C26E" d="m79.26 31.57-.006.018-.937-.38.008-.014"/><path fill="#F2C26E" d="m79.257 31.583-.006.018-.937-.38.007-.018"/><path fill="#F2C26E" d="m79.254 31.59-.007.017-.936-.38.006-.013"/><path fill="#F2C26E" d="m79.25 31.603-.006.017-.937-.38.004-.017"/><path fill="#F2C26E" d="m79.243 31.613-.006.017-.933-.38.003-.017"/><path fill="#F2C26E" d="m79.24 31.624-.007.017-.936-.38.007-.013"/><path fill="#F2C26E" d="m79.237 31.632-.007.017-.937-.379.007-.017"/><path fill="#F2C26E" d="m79.233 31.641-.007.018-.936-.38.007-.017"/><path fill="#F2C26E" d="m79.226 31.656-.003.018-.937-.38.007-.017"/><path fill="#F2C26E" d="m79.223 31.666-.007.017-.937-.379.007-.017"/><path fill="#F2C26E" d="m79.22 31.67-.008.018-.936-.38.007-.017"/><path fill="#F2C26E" d="m79.216 31.685-.007.018-.937-.38.007-.017"/><path fill="#F2C26E" d="m79.212 31.695-.007.018-.936-.38.007-.017"/><path fill="#F2C26E" d="m79.205 31.705-.003.017-.937-.38.004-.017"/><path fill="#F2C26E" d="m79.202 31.715-.007.017-.937-.38.007-.017"/><path fill="#F2C26E" d="m79.198 31.724-.007.014-.936-.376.007-.017"/><path fill="#F2C26E" d="m79.195 31.739-.007.017-.937-.38.007-.017"/><path fill="#F2C26E" d="m79.191 31.749-.007.014-.936-.377.007-.017"/><path fill="#F2C26E" d="m79.184 31.758-.003.014-.937-.376.004-.017"/><path fill="#F2C26E" d="m79.18 31.768-.006.014-.937-.376.007-.017"/><path fill="#F2C26E" d="m79.177 31.778-.007.014-.936-.376.007-.018"/><path fill="#F2C26E" d="m79.174 31.792-.007.014-.937-.376.007-.017"/><path fill="#F2C26E" d="m79.17 31.797-.007.014-.936-.376.007-.017"/><path fill="#F2C26E" d="m79.163 31.811-.003.015-.937-.376.004-.018"/><path fill="#F2C26E" d="m79.16 31.821-.007.014-.937-.376.007-.017"/><path fill="#F2C26E" d="m79.156 31.831-.006.014-.937-.376.007-.017"/><path fill="#F2C26E" d="m79.153 31.84-.007.015-.936-.376.006-.018"/><path fill="#F2C26E" d="m79.15 31.85-.007.014-.937-.376.007-.017"/><path fill="#F2C26E" d="m79.143 31.864-.004.015-.936-.38.003-.013"/><path fill="#F2C26E" d="m79.139 31.87-.007.014-.937-.38.008-.014"/><path fill="#F2C26E" d="m79.136 31.884-.007.014-.937-.375.007-.018"/><path fill="#F2C26E" d="m79.132 31.894-.007.014-.936-.38.007-.013"/><path fill="#F2C26E" d="m79.129 31.904-.007.014-.937-.38.007-.014"/><path fill="#F2C26E" d="m79.122 31.914-.004.014-.936-.38.003-.014"/><path fill="#F2C26E" d="m79.118 31.923-.007.014-.936-.38.007-.013"/><path fill="#F2C26E" d="m79.115 31.938-.007.014-.937-.38.007-.014"/><path fill="#F2C26E" d="m79.111 31.948-.007.014-.936-.38.007-.014"/><path fill="#F2C26E" d="m79.108 31.952-.007.014-.936-.379.006-.015m.93.394-.007.015-.933-.38.004-.014"/><path fill="#F2C26E" d="m79.097 31.977-.007.014-.936-.38.007-.014"/><path fill="#F2C26E" d="m79.094 31.986-.007.015-.937-.38.007-.014"/><path fill="#F2C26E" d="m79.09 31.996-.007.014-.936-.38.007-.013"/><path fill="#F2C26E" d="m79.084 32.006-.004.014-.936-.38.007-.014"/><path fill="#F2C26E" d="m79.08 32.017-.003.017-.94-.379.007-.015"/><path fill="#F2C26E" d="m79.076 32.03-.007.018-.936-.376.007-.021m-8.237-8.596a.504.504 0 1 1-.393-.93l2.18-.926a.504.504 0 1 1 .392.93l-2.179.925zm-.581-12.645a.506.506 0 0 1-.278-.658.506.506 0 0 1 .657-.278l2.194.888c.257.104.383.4.278.658a.507.507 0 0 1-.658.278l-2.193-.888z"/><path fill="#65AFF1" fill-rule="evenodd" d="m94.105 32.667.108.255.073.17a1.101 1.101 0 0 1-.581 1.438l-1.462.62a1.098 1.098 0 0 1-1.438-.582l-.073-.17-.108-.255-.073-.17a1.098 1.098 0 0 1 .581-1.438l1.462-.62a1.101 1.101 0 0 1 1.438.582l.073.17z" clip-rule="evenodd"/><path fill="#fff" d="M112.23 13.12c-.646-.136-1.123-.204-1.702-.204-2.281 0-3.95 1.158-4.631 2.895l-.204-2.52h-2.997v16.617h3.201v-8.82c0-3.2 1.873-5.039 4.903-5.039h1.43v-2.928zm4.819-3.813a2.121 2.121 0 0 0 2.111-2.111 2.1 2.1 0 0 0-2.111-2.111 2.1 2.1 0 0 0-2.111 2.11c0 1.159.954 2.112 2.111 2.112zm-1.566 20.6h3.201v-16.65h-3.201v16.65zm7.008-8.342c0 5.142 3.678 8.751 8.683 8.751 4.972 0 8.649-3.61 8.649-8.75 0-5.142-3.677-8.752-8.649-8.752-5.005 0-8.683 3.61-8.683 8.751zm3.235 0c0-3.473 2.213-5.89 5.448-5.89 3.201 0 5.448 2.417 5.448 5.89s-2.247 5.891-5.448 5.891c-3.235 0-5.448-2.418-5.448-5.89zm29.001-8.308v8.785c0 3.575-1.601 5.448-4.529 5.448-2.452 0-3.984-1.362-3.984-4.937v-9.296h-3.201v10.351c0 4.086 2.18 6.708 6.061 6.708 2.452 0 4.665-1.191 5.619-2.928l.34 2.52h2.861V13.257h-3.167zm6.366 11.816c0 3.166 2.486 5.243 6.402 5.243 3.95 0 6.674-2.009 6.674-5.175 0-2.486-1.396-3.78-4.223-4.461l-2.928-.715c-1.634-.409-2.452-1.158-2.452-2.282 0-1.532 1.124-2.417 3.133-2.417 1.941 0 3.065 1.055 3.133 2.724h3.064c-.068-3.167-2.451-5.21-6.095-5.21-3.677 0-6.265 1.941-6.265 5.006 0 2.451 1.396 3.915 4.358 4.63l2.929.681c1.736.443 2.281 1.124 2.281 2.248 0 1.532-1.294 2.452-3.541 2.452-2.111 0-3.405-1.022-3.405-2.724h-3.065z"/></svg>